# xmcd CD database file
#
# Track frame offsets:
#	200
#	14917
#	26850
#	39227
#	51977
#	66142
#	76622
#	87917
#	100490
#	111505
#	122637
#	134462
#	147362
#	161307
#	172350
#	183200
#
# Disc length: 2592 seconds
#
# Revision: 1
# Processed by: cddbd v1.5.1PL0 Copyright (c) Steve Scherf et al.
# Submitted via: CDex 1.51
#
DISCID=e20a1e10
DTITLE=Verschiedene - Country Express - The Greatest Truck Driver Hits
DYEAR=1900
DGENRE=Country
TTITLE0=Greene, Lorne- Ringo
TTITLE1=Parton, Dolly - Travelin´ Man
TTITLE2=Atkins, Chet - Wimoweh
TTITLE3=Snow, Hank and The Singing Rancher and His Rainbow Ranch Boys - I´m Moving On
TTITLE4=West, Dottie - Desperado
TTITLE5=Reed, Jerry - Amos Moses
TTITLE6=Atkins, Chet and Hank Snow - Wheels
TTITLE7=Jennings, Waylon - I´m A Rambling Man
TTITLE8=Hamilton IV, George - Truck Driving Man
TTITLE9=Bare, Bobby and The Hillsiders - Six Days On The Road
TTITLE10=Nelson, Willie - Funny How Time Slips Away
TTITLE11=Reeves, Jim - Four Walls
TTITLE12=Bare, Bobby - Truck Driver, Truck Driver
TTITLE13=Oxford, Vernon - Roll Big Wheels Roll
TTITLE14=Locklin, Hank - Please Help Me I´m Falling
TTITLE15=Gibson, Don - Oh Lonesome Me
EXTD=
EXTT0=
EXTT1=
EXTT2=
EXTT3=
EXTT4=
EXTT5=
EXTT6=
EXTT7=
EXTT8=
EXTT9=
EXTT10=
EXTT11=
EXTT12=
EXTT13=
EXTT14=
EXTT15=
PLAYORDER=
